<svg xmlns="http://www.w3.org/2000/svg" viewBox="0 0 132 124">
  <!-- layers -->
  <path
    d="M-1.004 972.8c.632 0 1.004.298 1.004.803v47.187c0 .61-.537 1.42-1.388 2.1-.85.68-1.868 1.11-2.628 1.11h-58.98c-.632 0-1.004-.3-1.004-.8v-47.187c0-.609.537-1.423 1.388-2.103.85-.68 1.868-1.11 2.628-1.11h58.98Z"
    fill="white" stroke="#1e293b" stroke-width="3"
    transform="rotate(-26.565 -1546.131 1919.596) skewX(36.87)"
  />
  <path
    d="M-1.004 972.8c.632 0 1.004.298 1.004.803v47.187c0 .61-.537 1.42-1.388 2.1-.85.68-1.868 1.11-2.628 1.11h-58.98c-.632 0-1.004-.3-1.004-.8v-47.187c0-.609.537-1.423 1.388-2.103.85-.68 1.868-1.11 2.628-1.11h58.98Z"
    fill="white" stroke="#1e293b" stroke-width="3"
    transform="rotate(-26.565 -1586.546 1910.056) skewX(36.87)"
  />
  <path
    d="M-1.004 972.8c.632 0 1.004.298 1.004.803v47.187c0 .61-.537 1.42-1.388 2.1-.85.68-1.868 1.11-2.628 1.11h-58.98c-.632 0-1.004-.3-1.004-.8v-47.187c0-.609.537-1.423 1.388-2.103.85-.68 1.868-1.11 2.628-1.11h58.98Z"
    fill="white" stroke="#1e293b" stroke-width="3"
    transform="rotate(-26.565 -1626.96 1900.515) skewX(36.87)"
  />
  <!-- inner lines -->
  <path
    d="m1335.68 438.866 38.16-19.082 38.16 19.082M1335.68 457.947l19.08-9.541M1412 457.947l-19.08-9.541"
    fill="none" stroke="rgba(0,0,0,0.1)" stroke-width="3"
    transform="translate(-1307.917 -383.848)"
  />
  <path
    d="m1354.76 448.406 19.08-9.54 19.08 9.54"
    fill="none" stroke="rgba(0,0,0,0.05)" stroke-width="3"
    transform="translate(-1307.917 -383.848)"
  />
</svg>
